<?xml version="1.0" encoding="UTF-8"?>
<svg version="1.1" xmlns="http://www.w3.org/2000/svg" width="214" height="214">
<path d="M0 0 C70.62 0 141.24 0 214 0 C214 70.62 214 141.24 214 214 C143.38 214 72.76 214 0 214 C0 143.38 0 72.76 0 0 Z " fill="#212225" transform="translate(0,0)"/>
<path d="M0 0 C70.62 0 141.24 0 214 0 C214 70.62 214 141.24 214 214 C143.38 214 72.76 214 0 214 C0 143.38 0 72.76 0 0 Z M23 11 C22.20207031 11.45761719 21.40414063 11.91523438 20.58203125 12.38671875 C13.64748513 17.48429901 9.3940025 23.73568852 7 32 C6.69835623 35.05320765 6.69835623 35.05320765 6.73257446 38.26615906 C6.72404449 39.50380508 6.71551453 40.74145111 6.70672607 42.01660156 C6.707425 43.37524427 6.70834801 44.73388688 6.70947266 46.0925293 C6.70348345 47.53367967 6.69667699 48.97482685 6.68911743 50.41596985 C6.6714864 54.32120451 6.66676317 58.22635146 6.66548586 62.13162208 C6.66406163 64.57571616 6.6597868 67.01978814 6.65449142 69.46387672 C6.63599806 78.00286899 6.62781961 86.54179892 6.62939453 95.08081055 C6.63059452 103.01971901 6.60951845 110.958355 6.5779072 118.89719456 C6.55168147 125.72886635 6.54102992 132.56044952 6.54230535 139.3921712 C6.5428133 143.46533311 6.53722368 147.53825294 6.51594925 151.61136436 C6.49646123 155.44711458 6.49651363 159.28239451 6.51098251 163.11816216 C6.51305897 164.51809127 6.5084398 165.91805063 6.4962616 167.31792831 C6.40524859 178.51401035 8.01109723 188.31399835 15.23046875 197.21484375 C20.64481942 202.67700326 27.26638367 206.59660816 35.01893139 207.25726891 C36.62630908 207.26229644 36.62630908 207.26229644 38.26615906 207.26742554 C39.50380508 207.27595551 40.74145111 207.28448547 42.01660156 207.29327393 C43.37524427 207.292575 44.73388688 207.29165199 46.0925293 207.29052734 C47.53367967 207.29651655 48.97482685 207.30332301 50.41596985 207.31088257 C54.32120451 207.3285136 58.22635146 207.33323683 62.13162208 207.33451414 C64.57571616 207.33593837 67.01978814 207.3402132 69.46387672 207.34550858 C78.00286899 207.36400194 86.54179892 207.37218039 95.08081055 207.37060547 C103.01971901 207.36940548 110.958355 207.39048155 118.89719456 207.4220928 C125.72886635 207.44831853 132.56044952 207.45897008 139.3921712 207.45769465 C143.46533311 207.4571867 147.53825294 207.46277632 151.61136436 207.48405075 C155.44711458 207.50353877 159.28239451 207.50348637 163.11816216 207.48901749 C164.51809127 207.48694103 165.91805063 207.4915602 167.31792831 207.5037384 C178.43817311 207.59413493 188.35906417 206.01485042 197.21484375 198.83203125 C206.5976796 189.20281896 207.30107041 178.49361542 207.29052734 165.76220703 C207.29651821 164.31766413 207.30332503 162.87312442 207.31088257 161.42858887 C207.32849163 157.51941559 207.33323575 153.61032996 207.33451414 149.70112085 C207.33593903 147.25519438 207.34021497 144.80928996 207.34550858 142.36336899 C207.36399098 133.82019392 207.37218131 125.27708112 207.37060547 116.73388672 C207.36940409 108.7863974 207.39051026 100.83917965 207.4220928 92.89175904 C207.44829102 86.0541536 207.4589713 79.21663668 207.45769465 72.37898147 C207.45718612 68.30142711 207.46280885 64.22411436 207.48405075 60.14661026 C207.50349359 56.31003204 207.50351684 52.47392446 207.48901749 48.6373291 C207.48693584 47.23494652 207.49159169 45.832534 207.5037384 44.43020248 C207.56895939 36.37434834 207.10842928 30.03575352 203 23 C202.55398437 22.20207031 202.10796875 21.40414063 201.6484375 20.58203125 C196.42795899 13.32780804 188.82977865 8.59093982 180 7 C175.25601336 6.69515039 170.51403547 6.7055376 165.76220703 6.70947266 C164.31766413 6.70348179 162.87312442 6.69667497 161.42858887 6.68911743 C157.51941559 6.67150837 153.61032996 6.66676425 149.70112085 6.66548586 C147.25519438 6.66406097 144.80928996 6.65978503 142.36336899 6.65449142 C133.82019392 6.63600902 125.27708112 6.62781869 116.73388672 6.62939453 C108.7863974 6.63059591 100.83917965 6.60948974 92.89175904 6.5779072 C86.0541536 6.55170898 79.21663668 6.5410287 72.37898147 6.54230535 C68.30142711 6.54281388 64.22411436 6.53719115 60.14661026 6.51594925 C56.31003204 6.49650641 52.47392446 6.49648316 48.6373291 6.51098251 C47.23494652 6.51306416 45.832534 6.50840831 44.43020248 6.4962616 C36.38063861 6.43109154 30.02703615 6.88242979 23 11 Z " fill="#1E1E21" transform="translate(0,0)"/>
<path d="M0 0 C1.85646904 -0.01279495 1.85646904 -0.01279495 3.7504425 -0.02584839 C5.10908521 -0.02514946 6.46772782 -0.02422645 7.82637024 -0.02310181 C9.26752062 -0.02909102 10.70866779 -0.03589747 12.14981079 -0.04345703 C16.05504545 -0.06108806 19.9601924 -0.06581129 23.86546302 -0.0670886 C26.3095571 -0.06851284 28.75362908 -0.07278767 31.19771767 -0.07808304 C39.73670993 -0.0965764 48.27563986 -0.10475485 56.81465149 -0.10317993 C64.75355996 -0.10197994 72.69219594 -0.12305602 80.63103551 -0.15466726 C87.46270729 -0.18089299 94.29429046 -0.19154454 101.12601215 -0.19026911 C105.19917405 -0.18976116 109.27209388 -0.19535078 113.34520531 -0.21662521 C117.18095552 -0.23611323 121.01623545 -0.23606083 124.8520031 -0.22159195 C126.25193221 -0.21951549 127.65189157 -0.22413467 129.05176926 -0.23631287 C140.2478513 -0.32732587 150.04783929 1.27852276 158.94868469 8.49789429 C164.4108442 13.91224496 168.3304491 20.5338092 168.99110985 28.28635693 C168.99446154 29.35794206 168.99781322 30.42952719 169.00126648 31.53358459 C169.01406143 33.39005363 169.01406143 33.39005363 169.02711487 35.2840271 C169.02641594 36.64266981 169.02549293 38.00131241 169.02436829 39.35995483 C169.0303575 40.80110521 169.03716395 42.24225239 169.04472351 43.68339539 C169.06235454 47.58863005 169.06707777 51.49377699 169.06835508 55.39904761 C169.06977931 57.8431417 169.07405415 60.28721368 169.07934952 62.73130226 C169.09784288 71.27029453 169.10602133 79.80922446 169.10444641 88.34823608 C169.10324642 96.28714455 169.1243225 104.22578053 169.15593374 112.1646201 C169.18215947 118.99629189 169.19281102 125.82787505 169.19153559 132.65959674 C169.19102764 136.73275865 169.19661726 140.80567848 169.21789169 144.8787899 C169.23737971 148.71454012 169.23732731 152.54982005 169.22285843 156.38558769 C169.22078197 157.78551681 169.22540115 159.18547617 169.23757935 160.58535385 C169.32797587 171.70559865 167.74869136 181.6264897 160.56587219 190.48226929 C150.9366599 199.86510514 140.22745636 200.56849595 127.49604797 200.55795288 C126.05150507 200.56394374 124.60696536 200.57075057 123.16242981 200.57830811 C119.25325653 200.59591717 115.34417091 200.60066128 111.4349618 200.60193968 C108.98903533 200.60336456 106.54313091 200.60764051 104.09720993 200.61293411 C95.55403486 200.63141652 87.01092206 200.63960684 78.46772766 200.63803101 C70.52023834 200.63682962 62.57302059 200.6579358 54.62559998 200.68951833 C47.78799454 200.71571656 40.95047763 200.72639684 34.11282241 200.72512019 C30.03526805 200.72461166 25.9579553 200.73023439 21.8804512 200.75147629 C18.04387298 200.77091912 14.2077654 200.77094237 10.37117004 200.75644302 C8.96878746 200.75436138 7.56637495 200.75901723 6.16404343 200.77116394 C-1.89181071 200.83638493 -8.23040554 200.37585482 -15.26615906 196.26742554 C-16.46305359 195.5984021 -16.46305359 195.5984021 -17.68412781 194.91586304 C-24.93835101 189.69538453 -29.67521924 182.09720419 -31.26615906 173.26742554 C-31.57100867 168.5234389 -31.56062146 163.78146101 -31.5566864 159.02963257 C-31.56267726 157.58508967 -31.56948409 156.14054996 -31.57704163 154.6960144 C-31.59465069 150.78684113 -31.5993948 146.8777555 -31.6006732 142.96854639 C-31.60209808 140.52261992 -31.60637403 138.0767155 -31.61166763 135.63079453 C-31.63015004 127.08761946 -31.63834036 118.54450665 -31.63676453 110.00131226 C-31.63556314 102.05382293 -31.65666932 94.10660519 -31.68825185 86.15918458 C-31.71445008 79.32157913 -31.72513036 72.48406222 -31.72385371 65.64640701 C-31.72334518 61.56885265 -31.72896791 57.49153989 -31.75020981 53.4140358 C-31.76965264 49.57745758 -31.76967589 45.74135 -31.75517654 41.90475464 C-31.7530949 40.50237206 -31.75775075 39.09995954 -31.76989746 37.69762802 C-31.83506752 29.64806415 -31.38372927 23.29446169 -27.26615906 16.26742554 C-26.57973328 15.07053101 -26.57973328 15.07053101 -25.87944031 13.84945679 C-19.48221606 5.1469265 -10.93095869 0.03418969 0 0 Z M-17.64115906 16.70492554 C-18.28826843 17.44613647 -18.93537781 18.18734741 -19.60209656 18.95101929 C-22.74480693 23.32573114 -23.51681723 27.04733 -23.53358459 32.38882446 C-23.54211456 33.61957199 -23.55064453 34.85031952 -23.55943298 36.11836243 C-23.55873402 37.47436536 -23.55781099 38.8303682 -23.5566864 40.18637085 C-23.56267376 41.62076669 -23.56947979 43.05515932 -23.57704163 44.48954773 C-23.5946904 48.38024501 -23.5993966 52.27085428 -23.6006732 56.16158772 C-23.6020963 58.59510776 -23.60636897 61.02860555 -23.61166763 63.46212006 C-23.63016608 71.95989905 -23.63833871 80.45761536 -23.63676453 88.95541382 C-23.63556404 96.86309953 -23.65664855 104.7705119 -23.68825185 112.67812848 C-23.71445258 119.47747743 -23.72513019 126.27673734 -23.72385371 133.07613635 C-23.72334507 137.13248224 -23.72897313 141.18858529 -23.75020981 145.24488068 C-23.76965576 149.06337603 -23.76967377 152.88139853 -23.75517654 156.69991112 C-23.75309499 158.0958418 -23.75775021 159.49180258 -23.76989746 160.88768196 C-23.84516119 170.14106035 -23.25024664 177.59912971 -17.08256531 184.82601929 C-16.33877625 185.44605835 -15.59498718 186.06609741 -14.82865906 186.70492554 C-14.08744812 187.34301147 -13.34623718 187.98109741 -12.58256531 188.63851929 C-8.1880861 191.72873485 -4.47769662 192.51811057 0.85523987 192.53485107 C2.0859874 192.54338104 3.31673492 192.55191101 4.58477783 192.56069946 C5.94078077 192.5600005 7.2967836 192.55907747 8.65278625 192.55795288 C10.0871821 192.56394024 11.52157473 192.57074627 12.95596313 192.57830811 C16.84666041 192.59595688 20.73726968 192.60066308 24.62800312 192.60193968 C27.06152317 192.60336278 29.49502095 192.60763545 31.92853546 192.61293411 C40.42631446 192.63143256 48.92403076 192.63960519 57.42182922 192.63803101 C65.32951494 192.63683052 73.23692731 192.65791503 81.14454389 192.68951833 C87.94389284 192.71571906 94.74315274 192.72639667 101.54255176 192.72512019 C105.59889765 192.72461155 109.65500069 192.73023961 113.71129608 192.75147629 C117.52979143 192.77092224 121.34781394 192.77094025 125.16632652 192.75644302 C126.56225721 192.75436147 127.95821798 192.75901668 129.35409737 192.77116394 C138.61464077 192.84648594 146.02193529 192.22398753 153.29243469 186.11898804 C153.91247375 185.38422241 154.53251282 184.64945679 155.17134094 183.89242554 C155.80942688 183.16281616 156.44751282 182.43320679 157.10493469 181.68148804 C160.23541054 177.0420778 160.98394986 172.53745765 161.00126648 167.01904297 C161.00979645 165.78547562 161.01832642 164.55190826 161.02711487 163.28096008 C161.02641595 161.92700182 161.02549295 160.57304367 161.02436829 159.21908569 C161.03035738 157.78291984 161.0371638 156.3467572 161.04472351 154.91059875 C161.06235107 151.0200278 161.06707749 147.12954489 161.06835508 143.23893785 C161.06977897 140.80558774 161.07405304 138.37225984 161.07934952 135.93891525 C161.09783837 127.44228449 161.10602148 118.94571638 161.10444641 110.44906616 C161.103245 102.54077182 161.12435002 94.63275039 161.15593374 86.72452509 C161.18212023 79.92432236 161.19281273 73.12420864 161.19153559 66.32395589 C161.1910267 62.26709791 161.19666968 58.21048264 161.21789169 54.15367508 C161.23731456 50.33681096 161.23737132 46.52042011 161.22285843 42.70353889 C161.22077429 41.30718733 161.22544771 39.91080581 161.23757935 38.51450539 C161.3122755 29.31766472 160.81917463 22.94698958 154.58540344 15.80648804 C153.483255 14.8590271 153.483255 14.8590271 152.35884094 13.89242554 C151.62923157 13.24531616 150.89962219 12.59820679 150.14790344 11.93148804 C145.52962376 8.74801369 141.01090298 8.01733868 135.48545837 8 C133.63510735 7.98720505 133.63510735 7.98720505 131.74737549 7.97415161 C130.39341723 7.97485053 129.03945907 7.97577353 127.6855011 7.97689819 C126.24933525 7.9709091 124.8131726 7.96410268 123.37701416 7.95654297 C119.4864432 7.93891541 115.59596029 7.93418899 111.70535326 7.9329114 C109.27200314 7.93148751 106.83867525 7.92721344 104.40533066 7.92191696 C95.90869989 7.90342811 87.41213178 7.895245 78.91548157 7.89682007 C71.00718722 7.89802148 63.09916579 7.87691646 55.1909405 7.84533274 C48.39073776 7.81914625 41.59062405 7.80845375 34.7903713 7.80973089 C30.73351331 7.81023978 26.67689805 7.8045968 22.62009048 7.78337479 C18.80322636 7.76395191 14.98683552 7.76389516 11.1699543 7.77840805 C9.77360273 7.78049219 8.37722121 7.77581877 6.98092079 7.76368713 C-3.251061 7.68058363 -10.66842051 8.49417014 -17.64115906 16.70492554 Z " fill="#B2B4B3" transform="translate(38.26615905761719,6.732574462890625)"/>
<path d="M0 0 C3.38705568 3.22292523 6.79974663 6.60851267 7.203125 11.42578125 C7.3611691 21.15866388 7.3611691 21.15866388 4 25 C0.5862069 28 0.5862069 28 -2 28 C-2 28.66 -2 29.32 -2 30 C-1.40574219 30.09667969 -0.81148437 30.19335938 -0.19921875 30.29296875 C2.45678478 31.14685266 3.41517703 32.18480122 5.1875 34.3125 C5.69667969 34.90675781 6.20585937 35.50101563 6.73046875 36.11328125 C9.41725323 40.10625633 9.31351649 44.29725267 9 49 C7.80327569 54.67620612 5.4321516 58.08459144 1.01171875 61.7734375 C-4.44063928 65.09778783 -9.68609366 65.31199238 -15.875 65.25 C-17.02162109 65.26160156 -17.02162109 65.26160156 -18.19140625 65.2734375 C-23.43592831 65.25562928 -27.95900128 64.44684701 -33 63 C-33 59.7 -33 56.4 -33 53 C-30.04056424 53.55489421 -27.21094781 54.22735402 -24.3125 55.0625 C-18.07886548 56.60617887 -12.33858174 57.16929087 -6.5 54.25 C-2.87466468 50.98719821 -2.15353647 49.40741766 -1.625 44.5625 C-2.06821258 40.35198049 -2.95040728 38.88474987 -6 36 C-9.62219019 34.25713109 -12.81947129 33.66365268 -16.8125 33.375 C-17.78832031 33.30023438 -18.76414062 33.22546875 -19.76953125 33.1484375 C-20.50558594 33.09945312 -21.24164063 33.05046875 -22 33 C-22 30.36 -22 27.72 -22 25 C-21.10796875 24.87882812 -20.2159375 24.75765625 -19.296875 24.6328125 C-18.12640625 24.46523437 -16.9559375 24.29765625 -15.75 24.125 C-14.58984375 23.96257812 -13.4296875 23.80015625 -12.234375 23.6328125 C-9.39922177 23.07810861 -7.4112754 22.55010561 -5 21 C-3.392095 17.78419 -3.54421496 14.48744613 -4 11 C-5.15925538 8.33822159 -5.15925538 8.33822159 -8 7 C-14.24273858 5.6274109 -19.89608454 5.79683881 -26.02734375 7.52734375 C-28 8 -28 8 -32 8 C-32 5.36 -32 2.72 -32 0 C-22.06927256 -4.18135892 -9.66354603 -5.44672594 0 0 Z " fill="#F8F8F8" transform="translate(146,73)"/>
<path d="M0 0 C2.97 0 5.94 0 9 0 C12.67515574 7.82258617 15.47893232 15.88845102 18.25 24.0625 C18.71316465 25.4187486 19.17670361 26.77486944 19.640625 28.13085938 C20.76473089 31.41911282 21.88377863 34.70906049 23 38 C23.36967896 36.96613159 23.36967896 36.96613159 23.74682617 35.91137695 C32.79710655 10.62339399 32.79710655 10.62339399 37 0 C39.97 0 42.94 0 46 0 C44.70811467 6.33541198 42.99675191 12.27266747 40.77734375 18.33984375 C40.47180069 19.18801163 40.16625763 20.0361795 39.85145569 20.91004944 C38.88525891 23.58775068 37.91136168 26.26257832 36.9375 28.9375 C36.28012246 30.75829158 35.62321709 32.5792537 34.96679688 34.40039062 C34.34156392 36.13035949 33.71592745 37.86018259 33.08984375 39.58984375 C32.64764748 40.81162575 32.64764748 40.81162575 32.19651794 42.05809021 C30.11890754 47.76218492 30.11890754 47.76218492 29 50 C25.04 50 21.08 50 17 50 C14.57494272 43.20210008 12.15396723 36.40276605 9.73681641 29.60205078 C8.91340267 27.2871952 8.08886132 24.97274042 7.26318359 22.65869141 C6.07875884 19.33860522 4.89835452 16.01711384 3.71875 12.6953125 C3.34689575 11.65569366 2.9750415 10.61607483 2.59191895 9.54495239 C2.25156616 8.58410736 1.91121338 7.62326233 1.56054688 6.63330078 C1.2585437 5.78502716 0.95654053 4.93675354 0.64538574 4.06277466 C0 2 0 2 0 0 Z " fill="#F8F8F8" transform="translate(57,87)"/>
</svg>
